# xmcd CD database file
#
# Track frame offsets:
#	182
#	14365
#	28412
#	40362
#	51190
#	65142
#	75782
#	88060
#	99142
#	111805
#	122190
#	133640
#	147222
#	160597
#
# Disc length: 2296 seconds
#
# Revision: 3
# Processed by: cddbd v1.5.2PL0 Copyright (c) Steve Scherf et al.
# Submitted via: CDex 1.51
#
DISCID=b608f60e
DTITLE=Ray Charles - This Love Of Mine
DYEAR=1987
DGENRE=Soul
TTITLE0=Kiss Me Baby
TTITLE1=Baby Let Me Hold Your Hand
TTITLE2=C.C. Rider
TTITLE3=I Wonder Who's Is Kissing Her Now
TTITLE4=I'm Going Down To The River
TTITLE5=They're Crazy About Me
TTITLE6=Goin' Down Slow
TTITLE7=A Sentimental Blues
TTITLE8=Can Anyone Ask For More
TTITLE9=Rocking Chair Blues
TTITLE10=If I Give You My Love
TTITLE11=This Love Of Mine
TTITLE12=Baby Wont You Please Come Home
TTITLE13=How Long How Long
EXTD=YEAR: 1987
EXTT0=
EXTT1=
EXTT2=
EXTT3=
EXTT4=
EXTT5=
EXTT6=
EXTT7=
EXTT8=
EXTT9=
EXTT10=
EXTT11=
EXTT12=
EXTT13=
PLAYORDER=
